PathFileType	4	(X/Y/Z)	c:/Users/goper/Files/vsCode/490R/osim_files/C08/C08_SSWS_03.trc
DataRate	CameraRate	NumFrames	NumMarkers	Units                	OrigDataRate	OrigDataStartFrame	OrigNumFrames
250.00	250.00	5	36	mm	250.0	3226	4301
                Frame#	Time	LPSIS			LASIS			LTH1			LTH2			LTH3			LTH4			LLFE			LMFE			LSH1			LSH2			LSH3			LSH4			LLMAL			LMMAL			LCAL			LMTP5			LTOE			LMTP1			RPSIS			RASIS			RTH1			RTH2			RTH3			RTH4			RLFE			RMFE			RSH1			RSH2			RSH3			RSH4			RLMAL			RMMAL			RCAL			RMTP1			RTOE			RMTP5		
		X1	Y1	Z1	X2	Y2	Z2	X3	Y3	Z3	X4	Y4	Z4	X5	Y5	Z5	X6	Y6	Z6	X7	Y7	Z7	X8	Y8	Z8	X9	Y9	Z9	X10	Y10	Z10	X11	Y11	Z11	X12	Y12	Z12	X13	Y13	Z13	X14	Y14	Z14	X15	Y15	Z15	X16	Y16	Z16	X17	Y17	Z17	X18	Y18	Z18	X19	Y19	Z19	X20	Y20	Z20	X21	Y21	Z21	X22	Y22	Z22	X23	Y23	Z23	X24	Y24	Z24	X25	Y25	Z25	X26	Y26	Z26	X27	Y27	Z27	X28	Y28	Z28	X29	Y29	Z29	X30	Y30	Z30	X31	Y31	Z31	X32	Y32	Z32	X33	Y33	Z33	X34	Y34	Z34	X35	Y35	Z35	X36	Y36	Z36

3226	12.90000	-2143.15552	1029.28589	187.31155	-2354.04297	991.89905	258.72263	-2331.64868	718.15491	332.50854	-2357.85889	646.75201	315.26593	-2382.20166	577.89655	303.93716	-2429.75024	679.07123	301.22015	-2398.91162	532.68341	295.15759	-2414.29346	526.41522	168.06815	-2383.01392	396.97562	302.63632	-2402.43701	353.44821	303.11816	-2440.65991	416.05905	304.32156	-2451.30420	371.51459	304.50342	-2499.07300	96.17204	253.04175	-2521.36792	113.63118	168.58649	-2444.98779	67.34210	196.03647	-2626.54590	64.93732	280.01089	-2673.39062	110.26794	226.90019	-2649.09106	80.38389	173.32542	-2140.63086	1029.83105	127.83589	-2328.38013	989.32043	19.43611	-2213.74927	737.20575	-29.74271	-2198.27539	660.46454	-11.53522	-2179.04150	585.09113	-2.99213	-2272.00024	650.06732	14.20923	-2158.32373	514.22345	15.56849	-2162.57446	509.17010	142.87268	-2071.74561	459.94827	2.45244	-2058.28784	417.42175	-2.40013	-2128.17920	433.85461	8.73834	-2107.22119	394.55786	4.21499	-1926.90002	142.60292	59.55949	-1957.39233	140.23006	145.64746	-1862.89307	142.12860	129.85422	-2052.75488	42.88269	139.85008	-2070.96143	53.49733	84.06979	-2014.84363	41.23382	24.56534
3227	12.90400	-2147.89453	1029.10596	187.78018	-2359.57788	991.37238	259.15982	-2337.15918	718.21692	332.37698	-2362.54102	646.68036	314.65329	-2387.41968	577.87122	303.97009	-2435.68750	679.04694	301.18161	-2405.79639	533.15961	295.95166	-2418.37134	525.77643	168.09866	-2387.92700	397.06451	302.60349	-2407.21777	353.45303	303.10846	-2445.52100	415.88583	304.54276	-2456.06152	371.30658	304.73410	-2501.03662	95.52851	253.27580	-2523.73022	112.77658	168.56500	-2446.33301	68.07563	196.09537	-2628.03589	62.11014	279.71338	-2675.84155	106.48676	226.67578	-2650.81982	77.22078	172.94052	-2145.73022	1029.58118	128.47101	-2333.36377	988.97638	19.54897	-2218.98242	736.80768	-29.52743	-2203.80444	659.98535	-11.52572	-2184.86279	584.45923	-3.07338	-2277.59229	649.77808	14.06320	-2164.21680	513.68866	15.35223	-2168.81689	508.31290	142.68201	-2077.24829	460.13174	2.34909	-2063.27588	417.98489	-2.34779	-2133.44531	433.42957	8.51136	-2112.02051	394.37772	3.96871	-1928.92773	144.45877	59.22424	-1959.38843	141.75705	145.30283	-1864.93481	145.14153	129.42647	-2053.11035	42.93093	139.88098	-2071.29492	53.43018	84.00930	-2015.21814	41.48400	24.45420
3228	12.90800	-2153.68066	1028.70728	188.57072	-2365.15210	990.89056	259.57742	-2342.59717	718.33704	332.31668	-2367.74316	646.78827	314.66562	-2392.54028	577.86566	304.13611	-2440.91675	678.88696	300.73923	-2410.78320	533.20551	296.18619	-2422.25537	525.07605	168.09340	-2392.90479	397.30780	302.92343	-2411.93921	353.58752	303.39001	-2450.41284	415.85031	304.92389	-2460.87842	371.25861	305.12210	-2502.73950	94.93149	253.59247	-2525.82568	111.93369	168.65030	-2447.31909	68.61578	196.05577	-2629.23364	59.36832	279.50430	-2678.07202	102.75230	226.54488	-2652.27734	74.04487	172.80716	-2150.82031	1029.33752	129.12070	-2336.81787	987.73889	19.85965	-2224.26245	736.43628	-29.32578	-2209.42407	659.52057	-11.53467	-2191.19897	583.70013	-2.37421	-2282.89990	649.56079	13.75036	-2170.30908	513.16986	15.08158	-2175.25830	507.53177	142.35730	-2083.03882	460.36206	2.27200	-2068.49585	418.39661	-2.46296	-2138.82910	432.99222	8.28577	-2116.99463	394.22855	3.75737	-1931.12573	146.42122	58.86249	-1961.52124	143.30836	144.85217	-1867.20032	148.30557	129.03389	-2053.50781	42.99899	139.92384	-2071.68042	53.42377	83.93535	-2015.68457	41.79047	24.39055
3229	12.91200	-2158.96484	1028.51953	189.22908	-2370.71362	990.44806	259.97040	-2348.03760	718.45178	332.30746	-2373.74341	647.11005	315.41693	-2397.67798	577.90637	304.38437	-2446.18042	678.82538	300.30457	-2415.80762	533.36591	296.52313	-2426.13159	524.46820	168.21162	-2397.82202	397.71176	303.51230	-2416.57422	353.84811	304.05835	-2455.49121	415.79092	305.42148	-2465.65918	371.29938	305.62616	-2504.09082	94.36340	253.93794	-2527.58154	111.16765	168.88771	-2448.53296	69.14458	196.26582	-2630.34741	56.87655	279.45044	-2680.03149	99.40505	226.51863	-2653.59106	71.32570	172.70227	-2155.89331	1029.08728	129.76376	-2341.62476	987.37476	19.88821	-2229.59180	736.07117	-29.10342	-2215.09570	659.01556	-11.47149	-2197.32056	583.03949	-2.45463	-2289.15210	649.24445	13.61718	-2176.59521	512.66180	14.81994	-2182.14209	506.84473	142.20822	-2088.95947	460.59436	2.21038	-2073.94775	418.82324	-2.56050	-2144.49219	432.59512	8.06622	-2122.20972	394.06631	3.57954	-1933.43726	148.45047	58.53781	-1963.83496	144.94791	144.44595	-1869.53162	151.69185	128.62003	-2053.89185	43.06389	139.95691	-2072.19238	53.48866	83.90307	-2016.19385	42.17043	24.34184
3230	12.91600	-2164.32202	1028.36694	189.88577	-2376.16870	990.04510	260.26791	-2353.47876	718.61127	332.43393	-2378.11035	647.08246	315.02225	-2402.95679	577.87457	304.80026	-2451.37207	678.79242	299.89233	-2420.91650	533.61060	296.88553	-2430.21191	524.03149	168.49165	-2402.46484	398.00574	304.37869	-2421.11011	354.21765	305.12177	-2460.43286	415.90689	305.82953	-2470.32153	371.34018	306.19897	-2505.31445	93.78418	254.35400	-2529.03052	110.55856	169.15720	-2449.29224	69.55811	196.38545	-2631.24365	54.75210	279.49933	-2681.72803	96.52312	226.71143	-2654.78906	69.06088	172.73671	-2161.06396	1028.86108	130.41322	-2346.40869	987.07288	19.93230	-2234.97095	735.67499	-28.87933	-2220.95215	658.48340	-11.47312	-2203.56543	582.36951	-2.48752	-2295.12695	648.97552	13.31604	-2182.97510	512.49554	14.53499	-2189.11987	505.86136	141.73076	-2094.81201	461.12830	1.90807	-2079.61328	419.26047	-2.66236	-2150.34888	432.15594	7.80796	-2127.62720	393.97876	3.32731	-1935.98376	150.59760	58.24796	-1966.33716	146.71069	144.04932	-1872.36853	155.02135	128.33301	-2054.30688	43.13097	140.02800	-2072.74170	53.49478	83.82050	-2016.76453	42.60010	24.29181
